<?xml version="1.0" standalone="no"?>
<!DOCTYPE svg PUBLIC "-//W3C//DTD SVG 20010904//EN"
 "http://www.w3.org/TR/2001/REC-SVG-20010904/DTD/svg10.dtd">
<svg version="1.0" xmlns="http://www.w3.org/2000/svg"
 width="639.000000pt" height="639.000000pt" viewBox="0 0 639.000000 639.000000"
 preserveAspectRatio="xMidYMid meet">
<metadata>
Created by potrace 1.11, written by Peter Selinger 2001-2013
</metadata>
<g transform="translate(0.000000,639.000000) scale(0.100000,-0.100000)"
fill="#000000" stroke="none">
<path d="M2905 6380 c-700 -72 -1313 -337 -1825 -790 -501 -443 -846 -1020
-999 -1670 -11 -47 -23 -103 -27 -125 -4 -22 -8 -49 -10 -60 -31 -162 -39
-279 -38 -550 1 -247 4 -312 23 -435 44 -291 129 -599 216 -787 8 -17 15 -34
15 -37 0 -13 108 -227 159 -316 233 -406 560 -764 942 -1031 58 -41 116 -80
130 -88 13 -8 53 -33 89 -54 253 -155 614 -296 935 -366 91 -20 102 -22 235
-41 41 -6 89 -13 105 -16 58 -10 541 -13 630 -4 86 9 106 12 200 26 200 29
481 105 676 182 741 294 1342 844 1693 1549 118 238 197 455 255 704 29 123
59 301 68 405 10 114 10 525 0 629 -84 851 -508 1639 -1165 2169 -115 92 -262
199 -323 233 -18 10 -39 23 -48 28 -367 228 -836 387 -1296 438 -128 15 -523
18 -640 7z"/>
</g>
</svg>
